<svg class="secret-header" width="480px" height="265px" xmlns="http://www.w3.org/2000/svg" style="animation-delay: 0s; animation-direction: normal; animation-duration: 0s; animation-fill-mode: none; animation-iteration-count: 1; animation-name: none; animation-play-state: running; animation-timing-function: ease; background-attachment: scroll; background-blend-mode: normal; background-clip: border-box; background-color: rgba(0, 0, 0, 0); background-image: none; background-origin: padding-box; background-position: 0% 0%; background-repeat: repeat; background-size: auto; border-bottom-color: rgba(0, 0, 0, 0); border-bottom-left-radius: 0px; border-bottom-right-radius: 0px; border-bottom-style: none; border-bottom-width: 0px; border-collapse: separate; border-image-outset: 0px; border-image-repeat: stretch; border-image-slice: 100%; border-image-source: none; border-image-width: 1; border-left-color: rgba(0, 0, 0, 0); border-left-style: none; border-left-width: 0px; border-right-color: rgba(0, 0, 0, 0); border-right-style: none; border-right-width: 0px; border-top-color: rgba(0, 0, 0, 0); border-top-left-radius: 0px; border-top-right-radius: 0px; border-top-style: none; border-top-width: 0px; bottom: auto; box-shadow: none; box-sizing: border-box; break-after: auto; break-before: auto; break-inside: auto; caption-side: top; clear: none; clip: auto; color: rgba(0, 0, 0, 0); content: ; cursor: auto; direction: ltr; display: inline-block; empty-cells: show; float: none; font-family: courier-prime, Courier, sans-serif; font-kerning: auto; font-size: 18px; font-stretch: normal; font-style: normal; font-variant: normal; font-variant-ligatures: normal; font-variant-caps: normal; font-variant-numeric: normal; font-weight: normal; height: 186.328px; image-rendering: auto; isolation: auto; justify-items: normal; justify-self: normal; left: auto; letter-spacing: normal; line-height: 28px; list-style-image: none; list-style-position: outside; list-style-type: disc; margin-bottom: 0px; margin-left: 0px; margin-right: 0px; margin-top: 0px; max-height: none; max-width: 100%; min-height: 0px; min-width: 0px; mix-blend-mode: normal; object-fit: fill; object-position: 50% 50%; offset-distance: 0px; offset-path: none; offset-rotate: auto 0deg; opacity: 1; orphans: 2; outline-color: rgba(0, 0, 0, 0); outline-offset: 0px; outline-style: none; outline-width: 0px; overflow-anchor: auto; overflow-wrap: normal; overflow-x: hidden; overflow-y: hidden; padding-bottom: 0px; padding-left: 0px; padding-right: 0px; padding-top: 0px; pointer-events: auto; position: static; resize: none; right: auto; speak: normal; table-layout: auto; tab-size: 8; text-align: center; text-align-last: auto; text-decoration: none solid rgba(0, 0, 0, 0); text-decoration-line: none; text-decoration-style: solid; text-decoration-color: rgba(0, 0, 0, 0); text-decoration-skip: objects; text-underline-position: auto; text-indent: 0px; text-rendering: auto; text-shadow: none; text-size-adjust: 100%; text-overflow: clip; text-transform: none; top: auto; touch-action: auto; transition-delay: 0s; transition-duration: 0s; transition-property: all; transition-timing-function: ease; unicode-bidi: normal; vertical-align: baseline; visibility: visible; white-space: normal; widows: 2; width: 337.5px; will-change: auto; word-break: normal; word-spacing: 0px; word-wrap: normal; z-index: auto; zoom: 1; -webkit-appearance: none; backface-visibility: visible; -webkit-background-clip: border-box; -webkit-background-origin: padding-box; -webkit-border-horizontal-spacing: 0px; -webkit-border-image: none; -webkit-border-vertical-spacing: 0px; -webkit-box-align: stretch; -webkit-box-decoration-break: slice; -webkit-box-direction: normal; -webkit-box-flex: 0; -webkit-box-flex-group: 1; -webkit-box-lines: single; -webkit-box-ordinal-group: 1; -webkit-box-orient: horizontal; -webkit-box-pack: start; -webkit-box-reflect: none; column-count: auto; column-gap: normal; column-rule-color: rgba(0, 0, 0, 0); column-rule-style: none; column-rule-width: 0px; column-span: none; column-width: auto; align-content: normal; align-items: normal; align-self: normal; flex-basis: auto; flex-grow: 0; flex-shrink: 1; flex-direction: row; flex-wrap: nowrap; justify-content: normal; -webkit-font-smoothing: antialiased; grid-auto-columns: auto; grid-auto-flow: row; grid-auto-rows: auto; grid-column-end: auto; grid-column-start: auto; grid-template-areas: none; grid-template-columns: none; grid-template-rows: none; grid-row-end: auto; grid-row-start: auto; grid-column-gap: 0px; grid-row-gap: 0px; -webkit-highlight: none; hyphens: manual; -webkit-hyphenate-character: auto; -webkit-line-break: auto; -webkit-line-clamp: none; -webkit-locale: auto; -webkit-margin-before-collapse: collapse; -webkit-margin-after-collapse: collapse; -webkit-mask-box-image: none; -webkit-mask-box-image-outset: 0px; -webkit-mask-box-image-repeat: stretch; -webkit-mask-box-image-slice: 0 fill; -webkit-mask-box-image-source: none; -webkit-mask-box-image-width: auto; -webkit-mask-clip: border-box; -webkit-mask-composite: source-over; -webkit-mask-image: none; -webkit-mask-origin: border-box; -webkit-mask-position: 0% 0%; -webkit-mask-repeat: repeat; -webkit-mask-size: auto; order: 0; perspective: none; perspective-origin: 168.75px 93.1563px; -webkit-print-color-adjust: economy; -webkit-rtl-ordering: logical; shape-outside: none; shape-image-threshold: 0; shape-margin: 0px; -webkit-tap-highlight-color: rgba(51, 181, 229, 0.4); -webkit-text-combine: none; -webkit-text-decorations-in-effect: none; -webkit-text-emphasis-color: rgba(0, 0, 0, 0); -webkit-text-emphasis-position: over; -webkit-text-emphasis-style: none; -webkit-text-fill-color: rgba(0, 0, 0, 0); -webkit-text-orientation: vertical-right; -webkit-text-security: none; -webkit-text-stroke-color: rgba(0, 0, 0, 0); -webkit-text-stroke-width: 0px; transform: none; transform-origin: 168.75px 93.1563px; transform-style: flat; -webkit-user-drag: auto; -webkit-user-modify: read-only; user-select: text; -webkit-writing-mode: horizontal-tb; -webkit-app-region: no-drag; buffered-rendering: auto; clip-path: none; clip-rule: nonzero; mask: none; filter: none; flood-color: rgb(0, 0, 0); flood-opacity: 1; lighting-color: rgb(255, 255, 255); stop-color: rgb(0, 0, 0); stop-opacity: 1; color-interpolation: sRGB; color-interpolation-filters: linearRGB; color-rendering: auto; fill: rgb(0, 0, 0); fill-opacity: 1; fill-rule: nonzero; marker-end: none; marker-mid: none; marker-start: none; mask-type: luminance; shape-rendering: auto; stroke: none; stroke-dasharray: none; stroke-dashoffset: 0px; stroke-linecap: butt; stroke-linejoin: miter; stroke-miterlimit: 4; stroke-opacity: 1; stroke-width: 1px; alignment-baseline: auto; baseline-shift: 0px; dominant-baseline: auto; text-anchor: start; writing-mode: horizontal-tb; vector-effect: none; paint-order: fill stroke markers; d: none; cx: 0px; cy: 0px; x: 0px; y: 0px; r: 0px; rx: auto; ry: auto; caret-color: rgba(0, 0, 0, 0);" version="1.1" xmlns:xlink="http://www.w3.org/1999/xlink"><style type="text/css">* { box-sizing: border-box; }
img, svg { display: inline-block; height: auto; margin: 0px auto; max-width: 100%; }
.secret-header svg { height: auto; max-width: 100%; }
.secret-illustration-fill-highlight { fill: rgb(247, 225, 195); }
.secret-illustration-fill-red { fill: rgb(240, 101, 75); }</style><svg xmlns="http://www.w3.org/2000/svg" class="secret-hide-big" x="0px" y="0px" viewBox="0 0 104 57.3">
  <g>
    <path class="secret-illustration-fill-red" d="M99.6,52.4l-1.3-4.4l-0.5-0.2L97.3,46l0.9-0.7l1.8-1.2c0.1-1.6-0.2-3.7-0.9-5.5L99,38.4l-12.7-8.2l1.5-3.5l7.1,4.7l2.4,0l0.2-15.6l3.9,0l0.7-1.9l-18.5-12L72.7,2l-1.1,3.1l-2.9-2.4l-7.5-1l-1.8,3.1l0,2.9l-8-5.2l-8.7-0.7L41,4.6l-3.3-2.1l-5.4-0.7c-1.1,0.7-2,1.5-2.8,2.5l-0.9,1.1l-3.9-2.7l-7.6-1L15,5.3l-4-2.8L5.4,1.8c-1,0.8-1.7,1.6-2.2,2.3C2.8,5.4,2.7,7.2,2.8,9.4l5.6,3.6l0,0.8c0.1,0.8,0,1.7-0.1,2.5l-0.2,1.5L2.7,17L2,19l10.3,6.6l-0.1,5.1l-6-3.9l-3.1-1.1l-0.9,1.4L4,28.2L3.8,43.1l18.8,12.2l2.4,0l0.1-4.7l6,3.9l3.1,1l2.3-3.4l4.3,3.1l2.4,0l0.1-5.6l8.4,5.6l2.4,0l0.1-8l11.6,7.7l5.9,0.4l1.4-3.7l4.8,3.3l6.3,0.4l1.7-3.9l5.5,3.7l2.5,0l0-3.7l4.6,3.2l2.5,0.6l1-1.5L99.6,52.4z"/>
    
    <path class="secret-illustration-fill-highlight" d="M100.9,51.4l-1.4-4.6L99,46.6l0,0l2.4-1.6l0-0.5c0.1-1.9-0.2-4.2-0.9-6.3l-0.2-0.7l-0.2-0.1l-11.8-7.7l0.3-0.7l6,3.9l4.3,0L99,17.3l3.4,0l1.5-4L84,0.4l-12.4,0l-0.8,2.1l-1.6-1.4L60.3,0l-2.6,4.2l0,0.5l-6-3.9l-10-0.8l-1.3,2.3L38.2,1L32,0.2l-0.3,0.2c-1.5,0.9-2.5,1.9-3.3,3l-3-2.1l-9-1.2l-1.8,3l-3-2.1L5,0.2L4.6,0.5C3.4,1.4,2.5,2.3,1.9,3.3L1.8,3.4L1.8,3.6c-0.5,1.6-0.5,3.5-0.5,6l0,0.6L7,13.9c0,0.7,0,1.5-0.1,2.2l-5.2-0.8l-1.6,4.2l10.6,6.8l0,1.5l-3.8-2.5l-4.4-1.5L0,27.6l2.5,1.5L2.3,44l19.9,12.9l4.3,0l0-3.4l3.8,2.5l4.4,1.5l2.1-3l3.4,2.5l4.3,0l0-4.3l6.5,4.3l4.3,0l0.1-6.7l9.6,6.4l7.4,0.5l1.1-3l3.5,2.5l7.8,0.5l1.4-3.2l4.4,3l4.4,0l0-2.3l2.5,1.7l3.8,0.9l2.5-3.7L100.9,51.4z M100.8,55.2l-2.5-0.6l-4.6-3.2l0,3.7l-2.5,0l-5.5-3.7L84,55.3l-6.3-0.4L73,51.6l-1.4,3.7l-5.9-0.4l-11.6-7.7l-0.1,8l-2.4,0l-8.4-5.6l-0.1,5.6l-2.4,0l-4.3-3.1l-2.3,3.4l-3.1-1l-6-3.9l-0.1,4.7l-2.4,0L3.8,43.1L4,28.2l-1.9-1.1l0.9-1.4l3.1,1.1l6,3.9l0.1-5.1L2,19l0.7-2l5.5,0.8l0.2-1.5c0.1-0.8,0.1-1.7,0.1-2.5l0-0.8L2.8,9.4c-0.1-2.2,0-4,0.4-5.3c0.5-0.8,1.3-1.5,2.2-2.3L11,2.5l4,2.8l2.2-3.6l7.6,1l3.9,2.7l0.9-1.1c0.8-1,1.7-1.9,2.8-2.5l5.4,0.7L41,4.6l1.6-2.9l8.7,0.7l8,5.2l0-2.9l1.8-3.1l7.5,1l2.9,2.4L72.7,2l10.9,0l18.5,12l-0.7,1.9l-3.9,0l-0.2,15.6l-2.4,0l-7.1-4.7l-1.5,3.5L99,38.4l0.1,0.2c0.6,1.8,1,3.9,0.9,5.5l-1.8,1.2L97.3,46l0.5,1.7l0.5,0.2l1.3,4.4l2.3,1.4L100.8,55.2z"/>

    <g>
      <g>
        <path class="secret-illustration-fill-highlight" d="M1.7,15.3l-1.6,4.2l7.4,1l0.4-0.4c0.6-0.6,1.7-1.7,2.5-3l0.1-0.1l0-0.2c0.6-1.9,0.7-4.1,0.3-6.7l-0.1-0.6 L5.3,7c0-0.6,0-1.6,0.1-2.5l4.2,0.6L11.5,1L4.9,0.2L4.6,0.5C3.4,1.4,2.5,2.3,1.9,3.3L1.8,3.4l0,0.2c-0.5,1.6-0.5,3.5-0.5,6l0,0.6 l5.6,2.9c0.1,0.9,0.1,2,0,2.9L1.7,15.3z"/>
      </g>

      <g>
        <polygon class="secret-illustration-fill-highlight" points="13.8,4.4 13.6,17.6 15.1,19.9 22.9,20.4 24.7,16.2 18,15.7 18,11.7 22.6,11.7 22.6,8.1 18.1,8.1 18.1,4.7 22.9,5.3 25.3,1.3 16.4,0.1"/>
      </g>

      <g>
        <path class="secret-illustration-fill-highlight" d="M28.2,19.5l7.8,1l1.9-4.2l-6.1-0.6l0-0.1l-0.1-0.3c-0.7-2.2-1-4.4-0.9-6.7c0-2.4,0.5-3.6,0.9-4l4.5,0.6 L38.2,1L32,0.2l-0.3,0.2c-2.3,1.3-3.5,3.1-4.4,4.6l-0.1,0.2l0,0.2c-0.4,2-0.5,3.5-0.5,4.8c0,3.2,0.4,6,1.4,8.7L28.2,19.5z"/>
      </g>

      <g>
        <path class="secret-illustration-fill-highlight" d="M51,10.2L50.5,10l2.4-1.7l0-0.5C53.1,6,52.7,3.6,52,1.5l-0.2-0.7l-10-0.8L39.5,4l2.9,0.2l-0.2,15.9l4.4,0 l0.1-7.3l0.5,0.2l1.9,6.5l3.8,0.9l2.5-3.7L52.7,16L51,10.2z M46.8,8.8l0-4.2l1.4,0.1c0.2,0.8,0.3,1.7,0.4,2.7L46.8,8.8z"/>
      </g>

      <g>
        <polygon class="secret-illustration-fill-highlight" points="66.8,20.3 68.6,16.1 61.9,15.6 62,11.6 66.5,11.6 66.6,7.9 62,8 62.1,4.6 66.8,5.2 69.3,1.2 60.3,0 57.7,4.2 57.6,17.5 59,19.8"/>
      </g>

      <g>
        <polygon class="secret-illustration-fill-highlight" points="74.6,20 78.9,20 79.1,4.4 82.5,4.4 84,0.4 71.6,0.4 70.1,4.4 74.8,4.4"/>
      </g>

      <g>
        <polygon class="secret-illustration-fill-highlight" points="15.1,24.3 10.7,24.3 10.6,32.2 6.8,32.2 6.9,25.4 2.5,23.9 0,27.5 2.5,28.3 2.3,43.9 6.6,43.9 6.7,35.7 10.6,35.7 10.5,43 14.9,44.4 17.4,40.8 14.9,40"/>
      </g>

      <g>
        <polygon class="secret-illustration-fill-highlight" points="17.5,27.5 20.6,28.2 20.4,43.9 24.7,43.9 24.9,25 20,23.8"/>
      </g>

      <g>
        <polygon class="secret-illustration-fill-highlight" points="26.8,28.3 31.5,28.3 31.3,43.9 35.6,43.9 35.8,28.3 39.2,28.3 40.7,24.3 28.3,24.3"/>
      </g>

      <g>
        <polygon class="secret-illustration-fill-highlight" points="48.4,24.9 43.9,23.8 41.5,27.5 44,28.2 43.8,41.2 45.3,43.5 52.7,44 54.2,39.8 48.2,39.4"/>
      </g>

      <g>
        <polygon class="secret-illustration-fill-highlight" points="65.1,28.9 67.5,24.9 58.6,23.8 56,28 55.8,41.2 57.3,43.5 65.1,44 66.9,39.8 60.2,39.4 60.2,35.4 64.8,35.4 64.8,31.7 60.3,31.7 60.3,28.3"/>
      </g>

      <g>
        <path class="secret-illustration-fill-highlight" d="M81.3,39.7l-1.7-5.8l-0.5-0.2l2.4-1.7l0-0.5c0.1-1.9-0.2-4.2-0.9-6.3l-0.2-0.7l-10-0.8l-2.2,3.9l2.9,0.2 l-0.2,15.9l4.4,0l0.1-7.3l0.5,0.2l1.9,6.5l3.8,0.9l2.5-3.7L81.3,39.7z M75.4,32.5l0-4.2l1.4,0.1c0.2,0.8,0.3,1.7,0.4,2.7 L75.4,32.5z"/>
      </g>
    </g>
  </g>
</svg></svg>