<svg class="secret-social-link-wrap" width="43.2" height="39.2" xmlns="http://www.w3.org/2000/svg" style="animation-delay: 0s; animation-direction: normal; animation-duration: 0s; animation-fill-mode: none; animation-iteration-count: 1; animation-name: none; animation-play-state: running; animation-timing-function: ease; background-attachment: scroll; background-blend-mode: normal; background-clip: border-box; background-color: rgba(0, 0, 0, 0); background-image: none; background-origin: padding-box; background-position: 0% 0%; background-repeat: repeat; background-size: auto; border-bottom-color: rgb(67, 67, 67); border-bottom-left-radius: 0px; border-bottom-right-radius: 0px; border-bottom-style: none; border-bottom-width: 0px; border-collapse: collapse; border-image-outset: 0px; border-image-repeat: stretch; border-image-slice: 100%; border-image-source: none; border-image-width: 1; border-left-color: rgb(67, 67, 67); border-left-style: none; border-left-width: 0px; border-right-color: rgb(67, 67, 67); border-right-style: none; border-right-width: 0px; border-top-color: rgb(67, 67, 67); border-top-left-radius: 0px; border-top-right-radius: 0px; border-top-style: none; border-top-width: 0px; bottom: 0px; box-shadow: none; box-sizing: border-box; break-after: auto; break-before: auto; break-inside: auto; caption-side: top; clear: none; clip: auto; color: rgb(67, 67, 67); content: ; cursor: auto; direction: ltr; display: block; empty-cells: show; float: none; font-family: courier-prime, Courier, sans-serif; font-kerning: auto; font-size: 27px; font-stretch: normal; font-style: normal; font-variant: normal; font-variant-ligatures: normal; font-variant-caps: normal; font-variant-numeric: normal; font-weight: bold; height: 39.1875px; image-rendering: auto; isolation: auto; justify-items: normal; justify-self: auto; left: 0px; letter-spacing: normal; line-height: 25px; list-style-image: none; list-style-position: outside; list-style-type: none; margin-bottom: 0px; margin-left: 0px; margin-right: 0px; margin-top: 0px; max-height: none; max-width: 100%; min-height: 0px; min-width: 0px; mix-blend-mode: normal; object-fit: fill; object-position: 50% 50%; offset-distance: 0px; offset-path: none; offset-rotate: auto 0deg; opacity: 1; orphans: 2; outline-color: rgb(67, 67, 67); outline-offset: 0px; outline-style: none; outline-width: 0px; overflow-anchor: auto; overflow-wrap: normal; overflow-x: hidden; overflow-y: hidden; padding-bottom: 0px; padding-left: 0px; padding-right: 0px; padding-top: 0px; pointer-events: auto; position: absolute; resize: none; right: 0px; scroll-behavior: auto; speak: normal; table-layout: auto; tab-size: 8; text-align: center; text-align-last: auto; text-decoration: none solid rgb(67, 67, 67); text-decoration-line: none; text-decoration-style: solid; text-decoration-color: rgb(67, 67, 67); text-decoration-skip: objects; text-underline-position: auto; text-indent: 0px; text-rendering: auto; text-shadow: none; text-size-adjust: 100%; text-overflow: clip; text-transform: uppercase; top: 0px; touch-action: auto; transition-delay: 0s; transition-duration: 0s; transition-property: all; transition-timing-function: ease; unicode-bidi: normal; vertical-align: baseline; visibility: visible; white-space: normal; widows: 2; width: 92px; will-change: auto; word-break: normal; word-spacing: 0px; word-wrap: normal; z-index: auto; zoom: 1; -webkit-appearance: none; backface-visibility: visible; -webkit-background-clip: border-box; -webkit-background-origin: padding-box; -webkit-border-horizontal-spacing: 0px; -webkit-border-image: none; -webkit-border-vertical-spacing: 0px; -webkit-box-align: stretch; -webkit-box-decoration-break: slice; -webkit-box-direction: normal; -webkit-box-flex: 0; -webkit-box-flex-group: 1; -webkit-box-lines: single; -webkit-box-ordinal-group: 1; -webkit-box-orient: horizontal; -webkit-box-pack: start; -webkit-box-reflect: none; column-count: auto; column-gap: normal; column-rule-color: rgb(67, 67, 67); column-rule-style: none; column-rule-width: 0px; column-span: none; column-width: auto; align-content: normal; align-items: normal; align-self: auto; flex-basis: auto; flex-grow: 0; flex-shrink: 1; flex-direction: row; flex-wrap: nowrap; justify-content: normal; -webkit-font-smoothing: antialiased; grid-auto-columns: auto; grid-auto-flow: row; grid-auto-rows: auto; grid-column-end: auto; grid-column-start: auto; grid-template-areas: none; grid-template-columns: none; grid-template-rows: none; grid-row-end: auto; grid-row-start: auto; grid-column-gap: 0px; grid-row-gap: 0px; -webkit-highlight: none; hyphens: manual; -webkit-hyphenate-character: auto; -webkit-line-break: auto; -webkit-line-clamp: none; -webkit-locale: auto; -webkit-margin-before-collapse: collapse; -webkit-margin-after-collapse: collapse; -webkit-mask-box-image: none; -webkit-mask-box-image-outset: 0px; -webkit-mask-box-image-repeat: stretch; -webkit-mask-box-image-slice: 0 fill; -webkit-mask-box-image-source: none; -webkit-mask-box-image-width: auto; -webkit-mask-clip: border-box; -webkit-mask-composite: source-over; -webkit-mask-image: none; -webkit-mask-origin: border-box; -webkit-mask-position: 0% 0%; -webkit-mask-repeat: repeat; -webkit-mask-size: auto; order: 0; perspective: none; perspective-origin: 46px 19.5938px; -webkit-print-color-adjust: economy; -webkit-rtl-ordering: logical; shape-outside: none; shape-image-threshold: 0; shape-margin: 0px; -webkit-tap-highlight-color: rgba(0, 0, 0, 0.18); -webkit-text-combine: none; -webkit-text-decorations-in-effect: none; -webkit-text-emphasis-color: rgb(67, 67, 67); -webkit-text-emphasis-position: over; -webkit-text-emphasis-style: none; -webkit-text-fill-color: rgb(67, 67, 67); -webkit-text-orientation: vertical-right; -webkit-text-security: none; -webkit-text-stroke-color: rgb(67, 67, 67); -webkit-text-stroke-width: 0px; transform: none; transform-origin: 46px 19.5938px; transform-style: flat; -webkit-user-drag: auto; -webkit-user-modify: read-only; user-select: text; -webkit-writing-mode: horizontal-tb; -webkit-app-region: no-drag; buffered-rendering: auto; clip-path: none; clip-rule: nonzero; mask: none; filter: none; flood-color: rgb(0, 0, 0); flood-opacity: 1; lighting-color: rgb(255, 255, 255); stop-color: rgb(0, 0, 0); stop-opacity: 1; color-interpolation: sRGB; color-interpolation-filters: linearRGB; color-rendering: auto; fill: rgb(0, 0, 0); fill-opacity: 1; fill-rule: nonzero; marker-end: none; marker-mid: none; marker-start: none; mask-type: luminance; shape-rendering: auto; stroke: none; stroke-dasharray: none; stroke-dashoffset: 0px; stroke-linecap: butt; stroke-linejoin: miter; stroke-miterlimit: 4; stroke-opacity: 1; stroke-width: 1px; alignment-baseline: auto; baseline-shift: 0px; dominant-baseline: auto; text-anchor: start; writing-mode: horizontal-tb; vector-effect: none; paint-order: fill stroke markers; d: none; cx: 0px; cy: 0px; x: 0px; y: 0px; r: 0px; rx: auto; ry: auto; caret-color: rgb(67, 67, 67); line-break: auto;" version="1.1" xmlns:xlink="http://www.w3.org/1999/xlink"><style type="text/css">* { box-sizing: border-box; }
img, svg { display: inline-block; height: auto; margin: 0px auto; max-width: 100%; }
.secret-social-link-wrap .secret-illustration { height: 100%; left: 0px; position: absolute; top: 0px; width: 100%; }
.secret-illustration-fill { fill: currentcolor; transition: fill 60ms cubic-bezier(0.5, 0.25, 0.75, 1.5); }</style><svg xmlns="http://www.w3.org/2000/svg" class="secret-illustration secret-illustration-bird" viewBox="0 0 21.6 19.6">
    <path class="secret-illustration-fill" d="M21.4,18.6l-0.4-1c0-0.1,0-0.1,0-0.2l-2.1-4.7l0,0l-0.3-0.6l-0.6-1.2c-0.2-0.5-0.5-0.9-0.9-1.2l0,0l-4-2.5 c0-0.2,0-0.4-0.1-0.6l3.7-1.3L18,4.5l3.1-4l-0.3-0.5l-4.2,2.5l-0.8,0.2l-2.6,0.6c0.2-0.4,0.4-0.8,0.6-1.2c0-0.9-0.7-1.6-1.6-1.5 c0,0,0,0,0,0c-0.2,0-0.4,0-0.6,0.1l0,0l-2,0.3l1,0.8L8.4,2.2C7.3,2.4,6.4,3.3,6,4.4L5.4,6.6l0,0C5.3,6.8,5.2,7.1,5.2,7.4l-2,0.2 c-0.1,0-0.2,0-0.4,0c0,0,0,0-0.1,0.1l-1,0.1l-1.8,2.2v1.6h0.2c0,0.2,0,0.3,0.2,0.4l1-0.1l-1,0.6C0.1,12.7,0,12.9,0,13.2l0,0l0.3,1.2 c0,0.1,0,0.3,0.1,0.4l0,0h0.1c0,0,0.1,0,0.1,0l1.4,0.4L2,14.9c0.1-0.1,0.3-0.1,0.4-0.2L6,11.1l2-1.9l0.7,1.5 c0.1,0.3,0.3,0.5,0.6,0.5l0.3,0.3L10,12c0.1,0.3,0.5,0.5,0.9,0.4c0,0,0.1,0,0.1-0.1l0,0l0.4,0.8c0.2,0.4,0.7,0.6,1.2,0.4l0.3,0.2 l0.3,0.6c0.2,0.3,0.6,0.5,0.9,0.3l0.8,0.6l0.1,0.2c0.1,0.2,0.3,0.3,0.5,0.3l0.6,0.5l2.3,1.9l1.8,1.4c0.4,0.3,0.8,0.2,1.1-0.2 C21.4,19,21.4,18.8,21.4,18.6z"/>
  </svg></svg>