<svg class="secret-social-link-wrap" width="36" height="25.8" xmlns="http://www.w3.org/2000/svg" style="animation-delay: 0s; animation-direction: normal; animation-duration: 0s; animation-fill-mode: none; animation-iteration-count: 1; animation-name: none; animation-play-state: running; animation-timing-function: ease; background-attachment: scroll; background-blend-mode: normal; background-clip: border-box; background-color: rgba(0, 0, 0, 0); background-image: none; background-origin: padding-box; background-position: 0% 0%; background-repeat: repeat; background-size: auto; border-bottom-color: rgb(67, 67, 67); border-bottom-left-radius: 0px; border-bottom-right-radius: 0px; border-bottom-style: none; border-bottom-width: 0px; border-collapse: collapse; border-image-outset: 0px; border-image-repeat: stretch; border-image-slice: 100%; border-image-source: none; border-image-width: 1; border-left-color: rgb(67, 67, 67); border-left-style: none; border-left-width: 0px; border-right-color: rgb(67, 67, 67); border-right-style: none; border-right-width: 0px; border-top-color: rgb(67, 67, 67); border-top-left-radius: 0px; border-top-right-radius: 0px; border-top-style: none; border-top-width: 0px; bottom: 0px; box-shadow: none; box-sizing: border-box; break-after: auto; break-before: auto; break-inside: auto; caption-side: top; clear: none; clip: auto; color: rgb(67, 67, 67); content: ; cursor: auto; direction: ltr; display: block; empty-cells: show; float: none; font-family: courier-prime, Courier, sans-serif; font-kerning: auto; font-size: 27px; font-stretch: normal; font-style: normal; font-variant: normal; font-variant-ligatures: normal; font-variant-caps: normal; font-variant-numeric: normal; font-weight: bold; height: 25.7969px; image-rendering: auto; isolation: auto; justify-items: normal; justify-self: auto; left: 0px; letter-spacing: normal; line-height: 25px; list-style-image: none; list-style-position: outside; list-style-type: none; margin-bottom: 0px; margin-left: 0px; margin-right: 0px; margin-top: 0px; max-height: none; max-width: 100%; min-height: 0px; min-width: 0px; mix-blend-mode: normal; object-fit: fill; object-position: 50% 50%; offset-distance: 0px; offset-path: none; offset-rotate: auto 0deg; opacity: 1; orphans: 2; outline-color: rgb(67, 67, 67); outline-offset: 0px; outline-style: none; outline-width: 0px; overflow-anchor: auto; overflow-wrap: normal; overflow-x: hidden; overflow-y: hidden; padding-bottom: 0px; padding-left: 0px; padding-right: 0px; padding-top: 0px; pointer-events: auto; position: absolute; resize: none; right: 0px; scroll-behavior: auto; speak: normal; table-layout: auto; tab-size: 8; text-align: center; text-align-last: auto; text-decoration: none solid rgb(67, 67, 67); text-decoration-line: none; text-decoration-style: solid; text-decoration-color: rgb(67, 67, 67); text-decoration-skip: objects; text-underline-position: auto; text-indent: 0px; text-rendering: auto; text-shadow: none; text-size-adjust: 100%; text-overflow: clip; text-transform: uppercase; top: 0px; touch-action: auto; transition-delay: 0s; transition-duration: 0s; transition-property: all; transition-timing-function: ease; unicode-bidi: normal; vertical-align: baseline; visibility: visible; white-space: normal; widows: 2; width: 92px; will-change: auto; word-break: normal; word-spacing: 0px; word-wrap: normal; z-index: auto; zoom: 1; -webkit-appearance: none; backface-visibility: visible; -webkit-background-clip: border-box; -webkit-background-origin: padding-box; -webkit-border-horizontal-spacing: 0px; -webkit-border-image: none; -webkit-border-vertical-spacing: 0px; -webkit-box-align: stretch; -webkit-box-decoration-break: slice; -webkit-box-direction: normal; -webkit-box-flex: 0; -webkit-box-flex-group: 1; -webkit-box-lines: single; -webkit-box-ordinal-group: 1; -webkit-box-orient: horizontal; -webkit-box-pack: start; -webkit-box-reflect: none; column-count: auto; column-gap: normal; column-rule-color: rgb(67, 67, 67); column-rule-style: none; column-rule-width: 0px; column-span: none; column-width: auto; align-content: normal; align-items: normal; align-self: auto; flex-basis: auto; flex-grow: 0; flex-shrink: 1; flex-direction: row; flex-wrap: nowrap; justify-content: normal; -webkit-font-smoothing: antialiased; grid-auto-columns: auto; grid-auto-flow: row; grid-auto-rows: auto; grid-column-end: auto; grid-column-start: auto; grid-template-areas: none; grid-template-columns: none; grid-template-rows: none; grid-row-end: auto; grid-row-start: auto; grid-column-gap: 0px; grid-row-gap: 0px; -webkit-highlight: none; hyphens: manual; -webkit-hyphenate-character: auto; -webkit-line-break: auto; -webkit-line-clamp: none; -webkit-locale: auto; -webkit-margin-before-collapse: collapse; -webkit-margin-after-collapse: collapse; -webkit-mask-box-image: none; -webkit-mask-box-image-outset: 0px; -webkit-mask-box-image-repeat: stretch; -webkit-mask-box-image-slice: 0 fill; -webkit-mask-box-image-source: none; -webkit-mask-box-image-width: auto; -webkit-mask-clip: border-box; -webkit-mask-composite: source-over; -webkit-mask-image: none; -webkit-mask-origin: border-box; -webkit-mask-position: 0% 0%; -webkit-mask-repeat: repeat; -webkit-mask-size: auto; order: 0; perspective: none; perspective-origin: 46px 12.8906px; -webkit-print-color-adjust: economy; -webkit-rtl-ordering: logical; shape-outside: none; shape-image-threshold: 0; shape-margin: 0px; -webkit-tap-highlight-color: rgba(0, 0, 0, 0.18); -webkit-text-combine: none; -webkit-text-decorations-in-effect: none; -webkit-text-emphasis-color: rgb(67, 67, 67); -webkit-text-emphasis-position: over; -webkit-text-emphasis-style: none; -webkit-text-fill-color: rgb(67, 67, 67); -webkit-text-orientation: vertical-right; -webkit-text-security: none; -webkit-text-stroke-color: rgb(67, 67, 67); -webkit-text-stroke-width: 0px; transform: none; transform-origin: 46px 12.8906px; transform-style: flat; -webkit-user-drag: auto; -webkit-user-modify: read-only; user-select: text; -webkit-writing-mode: horizontal-tb; -webkit-app-region: no-drag; buffered-rendering: auto; clip-path: none; clip-rule: nonzero; mask: none; filter: none; flood-color: rgb(0, 0, 0); flood-opacity: 1; lighting-color: rgb(255, 255, 255); stop-color: rgb(0, 0, 0); stop-opacity: 1; color-interpolation: sRGB; color-interpolation-filters: linearRGB; color-rendering: auto; fill: rgb(0, 0, 0); fill-opacity: 1; fill-rule: nonzero; marker-end: none; marker-mid: none; marker-start: none; mask-type: luminance; shape-rendering: auto; stroke: none; stroke-dasharray: none; stroke-dashoffset: 0px; stroke-linecap: butt; stroke-linejoin: miter; stroke-miterlimit: 4; stroke-opacity: 1; stroke-width: 1px; alignment-baseline: auto; baseline-shift: 0px; dominant-baseline: auto; text-anchor: start; writing-mode: horizontal-tb; vector-effect: none; paint-order: fill stroke markers; d: none; cx: 0px; cy: 0px; x: 0px; y: 0px; r: 0px; rx: auto; ry: auto; caret-color: rgb(67, 67, 67); line-break: auto;" version="1.1" xmlns:xlink="http://www.w3.org/1999/xlink"><style type="text/css">* { box-sizing: border-box; }
img, svg { display: inline-block; height: auto; margin: 0px auto; max-width: 100%; }
.secret-social-link-wrap .secret-illustration { height: 100%; left: 0px; position: absolute; top: 0px; width: 100%; }
.secret-illustration-fill { fill: currentcolor; transition: fill 60ms cubic-bezier(0.5, 0.25, 0.75, 1.5); }</style><svg xmlns="http://www.w3.org/2000/svg" class="secret-illustration secret-illustration-skull" viewBox="0 0 18 12.9">
    <path class="secret-illustration-fill" d="M10.6,0.7C10.5,0.9,10.3,1,10,1H9.7L7.3,0.8c-0.2,0-0.3,0-0.5-0.1C6.5,0.7,6.3,0.6,6,0.6l0,0 c-3.3,0-6,2.5-6,5.7l0,0.5c0,3.1,2.6,5.7,5.9,5.7c0.3,0,0.5,0,0.8-0.1c0.2,0,0.3,0,0.5-0.1l2.4-0.2h0.3c0.2,0,0.5,0.1,0.6,0.3 c0.3,0.4,0.8,0.6,1.3,0.5l1.6-0.5c0.7-0.2,1-0.9,0.8-1.5c-0.1-0.3,0-0.7,0.2-1l0.2-0.2c0.1-0.1,0.2-0.2,0.4-0.1c0.2,0,0.4,0,0.5,0 c1.8,0,2.5-1.4,2.5-3.1V6.4c0-1.7-0.7-3.1-2.5-3.1c-0.1,0-0.3,0-0.5,0c-0.1,0-0.3,0-0.4-0.1L14.4,3c-0.3-0.3-0.4-0.6-0.2-1 c0.2-0.6-0.1-1.3-0.8-1.5L11.8,0C11.4,0.1,10.9,0.3,10.6,0.7z M12.7,9.7c0,0.9-1,1.7-2.3,1.7c-0.1,0-0.3,0-0.4,0l-0.4-0.1 c-0.9-0.2-1.5-0.8-1.5-1.5c0-0.6,0-1.4,0.6-1.9c0.1,0,0.1-0.1,0.2-0.1c0,0,1.2-0.3,1.5-0.3c0.6,0,1,0.5,1.4,1 C12.3,8.8,12.7,9.2,12.7,9.7z M14.9,6c0,0.3-0.2,0.5-0.5,0.6h-0.1h0.1c0.3,0.1,0.5,0.3,0.5,0.6c0,0.3-0.4,0.6-0.9,0.6 c-0.3,0-0.6-0.1-0.8-0.3c-0.2-0.2-0.5-0.3-0.8-0.4L12.2,7h-0.1l0,0l-0.2-0.1c-0.3-0.1-0.3-0.5,0-0.6l0.6-0.2 c0.3-0.1,0.6-0.3,0.8-0.4c0.2-0.2,0.4-0.3,0.8-0.3C14.5,5.4,14.9,5.7,14.9,6z M12.7,3.6c0,0.5-0.5,0.9-0.9,1.3c-0.4,0.5-0.8,1-1.4,1 c-0.5,0-1.3-0.1-1.7-0.4C8.1,5,8.1,4.1,8.1,3.6c0-0.9,1-1.7,2.3-1.7C11.7,2,12.7,2.7,12.7,3.6z"/>
  </svg></svg>